<?xml version="1.0" standalone="no"?>
<!DOCTYPE svg PUBLIC "-//W3C//DTD SVG 20010904//EN"
 "http://www.w3.org/TR/2001/REC-SVG-20010904/DTD/svg10.dtd">
<svg version="1.0" xmlns="http://www.w3.org/2000/svg"
 width="700.000000pt" height="700.000000pt" viewBox="0 0 700.000000 700.000000"
 preserveAspectRatio="xMidYMid meet">
<metadata>
Created by potrace 1.14, written by Peter Selinger 2001-2017
</metadata>
<g transform="translate(0.000000,700.000000) scale(0.100000,-0.100000)"
fill="#000000" stroke="none">
<path d="M3432 6152 c-28 -9 -78 -56 -97 -92 -12 -23 -15 -87 -16 -324 l-1
-295 -32 -6 c-59 -12 -189 -56 -240 -82 -226 -114 -422 -325 -505 -545 l-11
-28 -1047 0 c-659 0 -1061 -4 -1084 -10 -113 -31 -156 -186 -76 -276 17 -20
42 -41 56 -47 15 -7 113 -14 234 -17 l208 -5 -108 -148 c-59 -82 -124 -171
-143 -198 -85 -118 -230 -318 -347 -479 l-128 -175 -48 -3 -48 -3 3 -92 3 -92
935 0 935 0 0 90 0 90 -47 5 -48 5 -283 390 c-156 215 -320 441 -365 503 l-81
112 848 0 c670 0 850 3 853 13 3 6 6 31 7 54 3 61 35 182 66 247 54 115 149
227 253 298 48 33 171 92 214 102 l28 6 -3 -1007 c-2 -555 -6 -1019 -9 -1033
-4 -14 -9 -54 -12 -90 -7 -75 -9 -91 -37 -223 -101 -488 -378 -938 -748 -1218
l-64 -49 1064 0 1063 0 -59 43 c-151 110 -339 315 -459 498 -49 77 -176 317
-176 334 0 4 -6 21 -14 38 -28 62 -64 174 -89 277 -32 130 -36 150 -51 270 -4
30 -10 69 -13 85 -3 17 -8 490 -10 1053 l-4 1023 28 -7 c53 -12 177 -74 232
-116 147 -110 251 -268 286 -435 7 -33 21 -134 20 -148 0 -7 289 -11 842 -13
l842 -2 -99 -138 c-54 -75 -103 -141 -107 -147 -5 -5 -125 -171 -267 -367
l-259 -357 -46 -3 -46 -3 -1 -80 c0 -44 1 -85 3 -91 3 -8 272 -11 938 -11
l935 0 0 94 0 93 -50 0 c-27 0 -50 3 -50 8 0 4 -17 30 -37 58 -54 72 -148 201
-433 594 l-250 345 222 5 c212 5 225 6 255 28 48 34 71 69 78 117 9 59 -2 100
-37 141 -60 68 8 64 -1153 64 l-1053 0 -45 93 c-97 199 -248 357 -441 462 -70
38 -204 88 -269 100 l-36 7 -3 302 -3 303 -25 36 c-34 50 -92 77 -161 76 -30
-1 -64 -4 -77 -7z m-2569 -2315 c-1 -210 -2 -390 -2 -399 -1 -17 -22 -18 -292
-18 l-290 0 48 68 c26 37 87 121 136 187 48 66 156 215 240 332 83 117 154
212 157 213 3 0 4 -172 3 -383z m230 280 c23 -32 53 -74 67 -92 14 -18 55 -75
92 -127 37 -51 128 -177 203 -279 74 -103 135 -189 135 -193 0 -3 -130 -6
-288 -6 l-289 0 0 401 c0 454 -10 418 80 296z m4895 -297 l0 -400 -289 0
c-159 0 -289 3 -289 6 0 4 163 233 296 414 49 67 219 299 250 343 16 20 29 37
30 37 1 0 2 -180 2 -400z m332 155 c36 -49 83 -115 105 -145 22 -30 43 -59 47
-65 5 -5 62 -84 128 -175 l121 -165 -287 -3 c-158 -1 -289 0 -292 3 -4 3 -7
752 -3 789 1 5 27 -27 58 -70 31 -44 86 -119 123 -169z"/>
<path d="M6006 5195 c-181 -62 -137 -335 54 -335 50 0 98 19 127 51 123 134
-10 342 -181 284z"/>
<path d="M883 5189 c-42 -12 -96 -68 -110 -113 -45 -147 103 -273 241 -206
102 49 129 187 53 268 -46 50 -118 70 -184 51z"/>
<path d="M47 3108 c31 -217 168 -441 353 -580 89 -67 260 -142 370 -163 69
-13 255 -13 327 1 285 54 520 229 649 486 35 70 84 223 84 264 l0 24 -894 0
-894 0 5 -32z"/>
<path d="M5174 3098 c22 -165 117 -348 246 -478 183 -182 409 -272 665 -265
130 4 153 8 265 45 209 70 391 219 498 410 39 70 98 232 105 293 l5 37 -895 0
-895 0 6 -42z"/>
<path d="M2110 1440 c-43 -22 -79 -83 -75 -127 4 -47 36 -96 76 -115 37 -19
163 -20 2165 -18 l551 0 34 23 c89 60 81 195 -15 238 -39 17 -101 18 -1371 18
-1270 0 -1332 -1 -1365 -19z"/>
<path d="M2050 905 l0 -202 1428 1 1427 1 3 201 2 201 -1430 0 -1430 0 0 -202z"/>
</g>
</svg>
